<?xml version="1.0" encoding="UTF-8" standalone="no"?>
<!DOCTYPE svg PUBLIC "-//W3C//DTD SVG 1.1//EN"
 "http://www.w3.org/Graphics/SVG/1.1/DTD/svg11.dtd">
<!-- Generated by graphviz version 2.28.0 (20120619.1416)
 -->
<!-- Title: G Pages: 1 -->
<svg width="430pt" height="288pt"
 viewBox="0.00 0.00 430.00 288.00" xmlns="http://www.w3.org/2000/svg" xmlns:xlink="http://www.w3.org/1999/xlink">
<g id="graph1" class="graph" transform="scale(0.5 0.5) rotate(0) translate(4 572)">
<title>G</title>
<polygon fill="white" stroke="white" points="-4,5 -4,-572 857,-572 857,5 -4,5"/>
<g id="graph2" class="cluster"><title>cluster_0</title>
<polygon fill="#ccffcc" stroke="#ccffcc" points="356.164,-8 356.164,-268 842.689,-268 842.689,-8 356.164,-8"/>
<text text-anchor="middle" x="599.426" y="-250" font-family="Times,serif" font-size="14.00">Data</text>
</g>
<g id="graph3" class="cluster"><title>cluster_1</title>
<polygon fill="#99ff99" stroke="#99ff99" points="453.934,-16 453.934,-236 833.377,-236 833.377,-16 453.934,-16"/>
<text text-anchor="middle" x="643.656" y="-218" font-family="Times,serif" font-size="14.00">EJson</text>
</g>
<g id="graph4" class="cluster"><title>cluster_2</title>
<polygon fill="#ccffcc" stroke="#ccffcc" points="9.31148,-144 9.31148,-524 346.852,-524 346.852,-144 9.31148,-144"/>
<text text-anchor="middle" x="178.082" y="-506" font-family="Times,serif" font-size="14.00">Web</text>
</g>
<g id="graph5" class="cluster"><title>cluster_3</title>
<polygon fill="#99ff99" stroke="#99ff99" points="18.623,-152 18.623,-492 337.541,-492 337.541,-152 18.623,-152"/>
<text text-anchor="middle" x="178.082" y="-474" font-family="Times,serif" font-size="14.00">DDP</text>
</g>
<g id="graph6" class="cluster"><title>cluster_4</title>
<polygon fill="#66ff66" stroke="#66ff66" points="27.9344,-160 27.9344,-416 314.262,-416 314.262,-160 27.9344,-160"/>
<text text-anchor="middle" x="171.098" y="-398" font-family="Times,serif" font-size="14.00">Deadpan</text>
</g>
<!-- u6 -->
<g id="node1" class="node"><title>u6</title>
<ellipse fill="none" stroke="black" cx="238.525" cy="-550" rx="31.1319" ry="18"/>
<text text-anchor="middle" x="238.525" y="-544.4" font-family="Times,serif" font-size="14.00">Main</text>
</g>
<!-- u12 -->
<g id="node12" class="node"><title>u12</title>
<ellipse fill="none" stroke="black" cx="238.525" cy="-442" rx="45.0328" ry="18"/>
<text text-anchor="middle" x="238.525" y="-436.4" font-family="Times,serif" font-size="14.00">Deadpan</text>
</g>
<!-- u6&#45;&gt;u12 -->
<g id="edge23" class="edge"><title>u6&#45;&gt;u12</title>
<path fill="none" stroke="black" d="M238.525,-531.969C238.525,-515.378 238.525,-489.883 238.525,-470.431"/>
<polygon fill="black" stroke="black" points="242.025,-470.341 238.525,-460.341 235.025,-470.341 242.025,-470.341"/>
</g>
<!-- u5 -->
<g id="node3" class="node"><title>u5</title>
<ellipse fill="none" stroke="black" cx="405.525" cy="-114" rx="34.1629" ry="18"/>
<text text-anchor="middle" x="405.525" y="-108.4" font-family="Times,serif" font-size="14.00">EJson</text>
</g>
<!-- u2 -->
<g id="node7" class="node"><title>u2</title>
<ellipse fill="none" stroke="black" cx="689.525" cy="-114" rx="60.3873" ry="18"/>
<text text-anchor="middle" x="689.525" y="-108.4" font-family="Times,serif" font-size="14.00">EJson2Value</text>
</g>
<!-- u5&#45;&gt;u2 -->
<g id="edge21" class="edge"><title>u5&#45;&gt;u2</title>
<path fill="none" stroke="black" d="M439.638,-114C499.308,-114 558.979,-114 618.649,-114"/>
<polygon fill="black" stroke="black" points="619.005,-117.5 629.005,-114 619.005,-110.5 619.005,-117.5"/>
</g>
<!-- u1 -->
<g id="node8" class="node"><title>u1</title>
<ellipse fill="none" stroke="black" cx="689.525" cy="-42" rx="34.1629" ry="18"/>
<text text-anchor="middle" x="689.525" y="-36.4" font-family="Times,serif" font-size="14.00">EJson</text>
</g>
<!-- u5&#45;&gt;u1 -->
<g id="edge19" class="edge"><title>u5&#45;&gt;u1</title>
<path fill="none" stroke="black" d="M431.823,-102.094C437.599,-99.9093 443.723,-97.7504 449.525,-96 517.841,-75.3886 599.317,-59.0893 647.607,-50.2638"/>
<polygon fill="black" stroke="black" points="648.465,-53.6656 657.683,-48.443 647.22,-46.7772 648.465,-53.6656"/>
</g>
<!-- u0 -->
<g id="node9" class="node"><title>u0</title>
<ellipse fill="none" stroke="black" cx="782.525" cy="-186" rx="35.5667" ry="18"/>
<text text-anchor="middle" x="782.525" y="-180.4" font-family="Times,serif" font-size="14.00">Aeson</text>
</g>
<!-- u5&#45;&gt;u0 -->
<g id="edge17" class="edge"><title>u5&#45;&gt;u0</title>
<path fill="none" stroke="black" d="M430.692,-126.326C436.746,-128.599 443.273,-130.689 449.525,-132 507.871,-144.236 660.638,-126.17 717.525,-144 731.424,-148.357 745.289,-156.454 756.622,-164.309"/>
<polygon fill="black" stroke="black" points="754.602,-167.168 764.753,-170.202 758.71,-161.5 754.602,-167.168"/>
</g>
<!-- u4 -->
<g id="node5" class="node"><title>u4</title>
<ellipse fill="none" stroke="black" cx="640.525" cy="-186" rx="68.1612" ry="18"/>
<text text-anchor="middle" x="640.525" y="-180.4" font-family="Times,serif" font-size="14.00">PropsBijection</text>
</g>
<!-- u4&#45;&gt;u5 -->
<g id="edge15" class="edge"><title>u4&#45;&gt;u5</title>
<path fill="none" stroke="black" d="M610.269,-169.681C591.507,-160.827 566.649,-150.237 543.525,-144 502.861,-133.033 490.355,-142.331 449.525,-132 446.696,-131.284 443.803,-130.439 440.918,-129.513"/>
<polygon fill="black" stroke="black" points="441.839,-126.127 431.244,-126.13 439.529,-132.735 441.839,-126.127"/>
</g>
<!-- u3 -->
<g id="node6" class="node"><title>u3</title>
<ellipse fill="none" stroke="black" cx="501.525" cy="-186" rx="33.0572" ry="18"/>
<text text-anchor="middle" x="501.525" y="-180.4" font-family="Times,serif" font-size="14.00">Props</text>
</g>
<!-- u3&#45;&gt;u5 -->
<g id="edge13" class="edge"><title>u3&#45;&gt;u5</title>
<path fill="none" stroke="black" d="M489.398,-168.853C482.7,-160.691 473.86,-151.049 464.525,-144 457.454,-138.661 449.247,-133.894 441.242,-129.842"/>
<polygon fill="black" stroke="black" points="442.549,-126.587 432.019,-125.423 439.525,-132.9 442.549,-126.587"/>
</g>
<!-- u2&#45;&gt;u1 -->
<g id="edge11" class="edge"><title>u2&#45;&gt;u1</title>
<path fill="none" stroke="black" d="M689.525,-95.6966C689.525,-87.9827 689.525,-78.7125 689.525,-70.1124"/>
<polygon fill="black" stroke="black" points="693.025,-70.1043 689.525,-60.1043 686.025,-70.1044 693.025,-70.1043"/>
</g>
<!-- u0&#45;&gt;u2 -->
<g id="edge9" class="edge"><title>u0&#45;&gt;u2</title>
<path fill="none" stroke="black" d="M763.255,-170.496C750.446,-160.855 733.381,-148.01 718.895,-137.107"/>
<polygon fill="black" stroke="black" points="720.81,-134.167 710.715,-130.95 716.6,-139.76 720.81,-134.167"/>
</g>
<!-- u0&#45;&gt;u1 -->
<g id="edge7" class="edge"><title>u0&#45;&gt;u1</title>
<path fill="none" stroke="black" d="M781.188,-167.921C779.002,-148.947 773.296,-118.08 758.525,-96 749.017,-81.7875 734.425,-69.7809 721.105,-60.8084"/>
<polygon fill="black" stroke="black" points="722.91,-57.8077 712.602,-55.3576 719.132,-63.7009 722.91,-57.8077"/>
</g>
<!-- u11 -->
<g id="node14" class="node"><title>u11</title>
<ellipse fill="none" stroke="black" cx="238.525" cy="-366" rx="56.3895" ry="18"/>
<text text-anchor="middle" x="238.525" y="-360.4" font-family="Times,serif" font-size="14.00">Websockets</text>
</g>
<!-- u12&#45;&gt;u11 -->
<g id="edge41" class="edge"><title>u12&#45;&gt;u11</title>
<path fill="none" stroke="black" d="M238.525,-423.837C238.525,-415.058 238.525,-404.163 238.525,-394.267"/>
<polygon fill="black" stroke="black" points="242.025,-394.07 238.525,-384.07 235.025,-394.07 242.025,-394.07"/>
</g>
<!-- u9 -->
<g id="node16" class="node"><title>u9</title>
<ellipse fill="none" stroke="black" cx="257.525" cy="-294" rx="28.9227" ry="18"/>
<text text-anchor="middle" x="257.525" y="-288.4" font-family="Times,serif" font-size="14.00">DSL</text>
</g>
<!-- u12&#45;&gt;u9 -->
<g id="edge39" class="edge"><title>u12&#45;&gt;u9</title>
<path fill="none" stroke="black" d="M278.998,-433.778C288.586,-430.073 297.706,-424.471 303.525,-416 320.634,-391.087 314.098,-376.312 303.525,-348 299.041,-335.994 290.476,-324.906 281.94,-316.009"/>
<polygon fill="black" stroke="black" points="284.148,-313.273 274.55,-308.787 279.255,-318.279 284.148,-313.273"/>
</g>
<!-- u7 -->
<g id="node18" class="node"><title>u7</title>
<ellipse fill="none" stroke="black" cx="94.5246" cy="-366" rx="49.1761" ry="18"/>
<text text-anchor="middle" x="94.5246" y="-360.4" font-family="Times,serif" font-size="14.00">Callbacks</text>
</g>
<!-- u12&#45;&gt;u7 -->
<g id="edge37" class="edge"><title>u12&#45;&gt;u7</title>
<path fill="none" stroke="black" d="M205.075,-429.798C194.475,-425.862 182.837,-421.129 172.525,-416 156.161,-407.862 138.863,-397.225 124.726,-387.942"/>
<polygon fill="black" stroke="black" points="126.631,-385.005 116.369,-382.371 122.748,-390.83 126.631,-385.005"/>
</g>
<!-- u10 -->
<g id="node15" class="node"><title>u10</title>
<ellipse fill="none" stroke="black" cx="147.525" cy="-186" rx="35.2617" ry="18"/>
<text text-anchor="middle" x="147.525" y="-180.4" font-family="Times,serif" font-size="14.00">GUID</text>
</g>
<!-- u10&#45;&gt;u5 -->
<g id="edge35" class="edge"><title>u10&#45;&gt;u5</title>
<path fill="none" stroke="black" d="M164.688,-170.132C176.077,-161.097 191.778,-150.152 207.525,-144 257.834,-124.346 320.061,-117.868 361.177,-115.811"/>
<polygon fill="black" stroke="black" points="361.573,-119.297 371.413,-115.369 361.271,-112.304 361.573,-119.297"/>
</g>
<!-- u9&#45;&gt;u5 -->
<g id="edge29" class="edge"><title>u9&#45;&gt;u5</title>
<path fill="none" stroke="black" d="M282.046,-283.93C290.731,-279.932 300.164,-274.619 307.525,-268 348.125,-231.491 378.625,-174.405 394.122,-141.259"/>
<polygon fill="black" stroke="black" points="397.475,-142.341 398.444,-131.791 391.107,-139.434 397.475,-142.341"/>
</g>
<!-- u9&#45;&gt;u10 -->
<g id="edge33" class="edge"><title>u9&#45;&gt;u10</title>
<path fill="none" stroke="black" d="M233.497,-283.772C224.769,-279.73 215.18,-274.428 207.525,-268 188.979,-252.428 172.952,-230.025 162.139,-212.724"/>
<polygon fill="black" stroke="black" points="164.858,-210.457 156.686,-203.714 158.869,-214.081 164.858,-210.457"/>
</g>
<!-- u8 -->
<g id="node17" class="node"><title>u8</title>
<ellipse fill="none" stroke="black" cx="257.525" cy="-186" rx="41.1308" ry="18"/>
<text text-anchor="middle" x="257.525" y="-180.4" font-family="Times,serif" font-size="14.00">Comms</text>
</g>
<!-- u9&#45;&gt;u8 -->
<g id="edge31" class="edge"><title>u9&#45;&gt;u8</title>
<path fill="none" stroke="black" d="M257.525,-275.969C257.525,-259.378 257.525,-233.883 257.525,-214.431"/>
<polygon fill="black" stroke="black" points="261.025,-214.341 257.525,-204.341 254.025,-214.341 261.025,-214.341"/>
</g>
<!-- u8&#45;&gt;u5 -->
<g id="edge27" class="edge"><title>u8&#45;&gt;u5</title>
<path fill="none" stroke="black" d="M284.326,-172.324C308.809,-160.744 345.12,-143.57 371.613,-131.039"/>
<polygon fill="black" stroke="black" points="373.346,-134.091 380.889,-126.652 370.353,-127.764 373.346,-134.091"/>
</g>
<!-- u7&#45;&gt;u9 -->
<g id="edge25" class="edge"><title>u7&#45;&gt;u9</title>
<path fill="none" stroke="black" d="M125.184,-351.834C153.686,-339.593 196,-321.422 225.066,-308.939"/>
<polygon fill="black" stroke="black" points="226.569,-312.103 234.376,-304.941 223.807,-305.671 226.569,-312.103"/>
</g>
</g>
</svg>
