<?xml version="1.0" encoding="UTF-8" standalone="no"?>
<!DOCTYPE svg PUBLIC "-//W3C//DTD SVG 1.1//EN"
 "http://www.w3.org/Graphics/SVG/1.1/DTD/svg11.dtd">
<!-- Generated by graphviz version 2.28.0 (20120619.1416)
 -->
<!-- Title: G Pages: 1 -->
<svg width="430pt" height="288pt"
 viewBox="0.00 0.00 430.29 288.00" xmlns="http://www.w3.org/2000/svg" xmlns:xlink="http://www.w3.org/1999/xlink">
<g id="graph1" class="graph" transform="scale(0.428571 0.428571) rotate(0) translate(4 668)">
<title>G</title>
<polygon fill="white" stroke="white" points="-4,5 -4,-668 1001,-668 1001,5 -4,5"/>
<g id="graph2" class="cluster"><title>cluster_0</title>
<polygon fill="#ccffcc" stroke="#ccffcc" points="350.837,-8 350.837,-268 977.163,-268 977.163,-8 350.837,-8"/>
<text text-anchor="middle" x="664" y="-250" font-family="Times,serif" font-size="14.00">Data</text>
</g>
<g id="graph3" class="cluster"><title>cluster_1</title>
<polygon fill="#99ff99" stroke="#99ff99" points="553.333,-16 553.333,-236 958.326,-236 958.326,-16 553.333,-16"/>
<text text-anchor="middle" x="755.83" y="-218" font-family="Times,serif" font-size="14.00">EJson</text>
</g>
<g id="graph4" class="cluster"><title>cluster_2</title>
<polygon fill="#ccffcc" stroke="#ccffcc" points="18.8369,-276 18.8369,-620 701.674,-620 701.674,-276 18.8369,-276"/>
<text text-anchor="middle" x="360.255" y="-602" font-family="Times,serif" font-size="14.00">Web</text>
</g>
<g id="graph5" class="cluster"><title>cluster_3</title>
<polygon fill="#99ff99" stroke="#99ff99" points="37.6738,-284 37.6738,-588 682.837,-588 682.837,-284 37.6738,-284"/>
<text text-anchor="middle" x="360.255" y="-570" font-family="Times,serif" font-size="14.00">DDP</text>
</g>
<g id="graph6" class="cluster"><title>cluster_4</title>
<polygon fill="#66ff66" stroke="#66ff66" points="56.5106,-292 56.5106,-512 635.745,-512 635.745,-292 56.5106,-292"/>
<text text-anchor="middle" x="346.128" y="-494" font-family="Times,serif" font-size="14.00">Deadpan</text>
</g>
<!-- u5 -->
<g id="node1" class="node"><title>u5</title>
<ellipse fill="none" stroke="black" cx="483.071" cy="-646" rx="31.1319" ry="18"/>
<text text-anchor="middle" x="483.071" y="-640.4" font-family="Times,serif" font-size="14.00">Main</text>
</g>
<!-- u11 -->
<g id="node11" class="node"><title>u11</title>
<ellipse fill="none" stroke="black" cx="483.071" cy="-538" rx="45.0328" ry="18"/>
<text text-anchor="middle" x="483.071" y="-532.4" font-family="Times,serif" font-size="14.00">Deadpan</text>
</g>
<!-- u5&#45;&gt;u11 -->
<g id="edge21" class="edge"><title>u5&#45;&gt;u11</title>
<path fill="none" stroke="black" d="M483.071,-627.969C483.071,-611.378 483.071,-585.883 483.071,-566.431"/>
<polygon fill="black" stroke="black" points="486.571,-566.341 483.071,-556.341 479.571,-566.341 486.571,-566.341"/>
</g>
<!-- u4 -->
<g id="node3" class="node"><title>u4</title>
<ellipse fill="none" stroke="black" cx="450.071" cy="-186" rx="34.1629" ry="18"/>
<text text-anchor="middle" x="450.071" y="-180.4" font-family="Times,serif" font-size="14.00">EJson</text>
</g>
<!-- u2 -->
<g id="node6" class="node"><title>u2</title>
<ellipse fill="none" stroke="black" cx="716.071" cy="-114" rx="60.3873" ry="18"/>
<text text-anchor="middle" x="716.071" y="-108.4" font-family="Times,serif" font-size="14.00">EJson2Value</text>
</g>
<!-- u4&#45;&gt;u2 -->
<g id="edge19" class="edge"><title>u4&#45;&gt;u2</title>
<path fill="none" stroke="black" d="M479.81,-177.174C523.969,-165.553 607.563,-143.555 662.544,-129.086"/>
<polygon fill="black" stroke="black" points="663.682,-132.406 672.462,-126.476 661.9,-125.636 663.682,-132.406"/>
</g>
<!-- u1 -->
<g id="node7" class="node"><title>u1</title>
<ellipse fill="none" stroke="black" cx="716.071" cy="-42" rx="34.1629" ry="18"/>
<text text-anchor="middle" x="716.071" y="-36.4" font-family="Times,serif" font-size="14.00">EJson</text>
</g>
<!-- u4&#45;&gt;u1 -->
<g id="edge17" class="edge"><title>u4&#45;&gt;u1</title>
<path fill="none" stroke="black" d="M473.211,-172.647C520.767,-147.26 629.571,-89.1767 683.929,-60.1582"/>
<polygon fill="black" stroke="black" points="685.621,-63.2227 692.795,-55.4257 682.325,-57.0475 685.621,-63.2227"/>
</g>
<!-- u0 -->
<g id="node8" class="node"><title>u0</title>
<ellipse fill="none" stroke="black" cx="657.071" cy="-186" rx="35.5667" ry="18"/>
<text text-anchor="middle" x="657.071" y="-180.4" font-family="Times,serif" font-size="14.00">Aeson</text>
</g>
<!-- u4&#45;&gt;u0 -->
<g id="edge15" class="edge"><title>u4&#45;&gt;u0</title>
<path fill="none" stroke="black" d="M484.436,-186C526.785,-186 569.134,-186 611.482,-186"/>
<polygon fill="black" stroke="black" points="611.667,-189.5 621.667,-186 611.667,-182.5 611.667,-189.5"/>
</g>
<!-- u3 -->
<g id="node5" class="node"><title>u3</title>
<ellipse fill="none" stroke="black" cx="862.071" cy="-186" rx="33.0572" ry="18"/>
<text text-anchor="middle" x="862.071" y="-180.4" font-family="Times,serif" font-size="14.00">Props</text>
</g>
<!-- u3&#45;&gt;u4 -->
<g id="edge13" class="edge"><title>u3&#45;&gt;u4</title>
<path fill="none" stroke="black" d="M842.179,-200.445C811.702,-221.518 750.795,-259.538 692.071,-272 677.506,-275.091 572.635,-275.091 558.071,-272 521.11,-264.156 488.717,-233.362 469.281,-210.857"/>
<polygon fill="black" stroke="black" points="471.816,-208.433 462.722,-202.999 466.442,-212.919 471.816,-208.433"/>
</g>
<!-- u2&#45;&gt;u1 -->
<g id="edge11" class="edge"><title>u2&#45;&gt;u1</title>
<path fill="none" stroke="black" d="M716.071,-95.6966C716.071,-87.9827 716.071,-78.7125 716.071,-70.1124"/>
<polygon fill="black" stroke="black" points="719.571,-70.1043 716.071,-60.1043 712.571,-70.1044 719.571,-70.1043"/>
</g>
<!-- u0&#45;&gt;u2 -->
<g id="edge9" class="edge"><title>u0&#45;&gt;u2</title>
<path fill="none" stroke="black" d="M670.459,-169.116C677.79,-160.418 687.036,-149.448 695.284,-139.663"/>
<polygon fill="black" stroke="black" points="698.145,-141.699 701.913,-131.797 692.792,-137.188 698.145,-141.699"/>
</g>
<!-- u0&#45;&gt;u1 -->
<g id="edge7" class="edge"><title>u0&#45;&gt;u1</title>
<path fill="none" stroke="black" d="M691.449,-181.235C721.803,-175.887 764.357,-162.996 785.071,-132 793.961,-118.697 792.144,-110.352 785.071,-96 777.512,-80.662 763.146,-68.5253 749.471,-59.7578"/>
<polygon fill="black" stroke="black" points="751.04,-56.6181 740.663,-54.4831 747.444,-62.6236 751.04,-56.6181"/>
</g>
<!-- u10 -->
<g id="node13" class="node"><title>u10</title>
<ellipse fill="none" stroke="black" cx="483.071" cy="-462" rx="56.3895" ry="18"/>
<text text-anchor="middle" x="483.071" y="-456.4" font-family="Times,serif" font-size="14.00">Websockets</text>
</g>
<!-- u11&#45;&gt;u10 -->
<g id="edge39" class="edge"><title>u11&#45;&gt;u10</title>
<path fill="none" stroke="black" d="M483.071,-519.837C483.071,-511.058 483.071,-500.163 483.071,-490.267"/>
<polygon fill="black" stroke="black" points="486.571,-490.07 483.071,-480.07 479.571,-490.07 486.571,-490.07"/>
</g>
<!-- u8 -->
<g id="node15" class="node"><title>u8</title>
<ellipse fill="none" stroke="black" cx="450.071" cy="-390" rx="28.9227" ry="18"/>
<text text-anchor="middle" x="450.071" y="-384.4" font-family="Times,serif" font-size="14.00">DSL</text>
</g>
<!-- u11&#45;&gt;u8 -->
<g id="edge37" class="edge"><title>u11&#45;&gt;u8</title>
<path fill="none" stroke="black" d="M523.544,-529.778C533.132,-526.073 542.253,-520.471 548.071,-512 565.181,-487.087 563.545,-469.96 548.071,-444 534.845,-421.811 508.749,-408.349 486.81,-400.548"/>
<polygon fill="black" stroke="black" points="487.676,-397.149 477.083,-397.351 485.49,-403.799 487.676,-397.149"/>
</g>
<!-- u6 -->
<g id="node17" class="node"><title>u6</title>
<ellipse fill="none" stroke="black" cx="191.071" cy="-462" rx="49.1761" ry="18"/>
<text text-anchor="middle" x="191.071" y="-456.4" font-family="Times,serif" font-size="14.00">Callbacks</text>
</g>
<!-- u11&#45;&gt;u6 -->
<g id="edge35" class="edge"><title>u11&#45;&gt;u6</title>
<path fill="none" stroke="black" d="M446.089,-527.628C393.864,-514.393 298.399,-490.2 240.248,-475.463"/>
<polygon fill="black" stroke="black" points="241.1,-472.068 230.546,-473.004 239.38,-478.853 241.1,-472.068"/>
</g>
<!-- u9 -->
<g id="node14" class="node"><title>u9</title>
<ellipse fill="none" stroke="black" cx="228.071" cy="-318" rx="35.2617" ry="18"/>
<text text-anchor="middle" x="228.071" y="-312.4" font-family="Times,serif" font-size="14.00">GUID</text>
</g>
<!-- u9&#45;&gt;u4 -->
<g id="edge33" class="edge"><title>u9&#45;&gt;u4</title>
<path fill="none" stroke="black" d="M250.579,-303.819C290.593,-280.388 374.141,-231.463 419.383,-204.97"/>
<polygon fill="black" stroke="black" points="421.301,-207.904 428.161,-199.83 417.763,-201.863 421.301,-207.904"/>
</g>
<!-- u8&#45;&gt;u4 -->
<g id="edge27" class="edge"><title>u8&#45;&gt;u4</title>
<path fill="none" stroke="black" d="M468.291,-375.731C479.803,-366.152 493.673,-352.106 500.071,-336 509.916,-311.217 506.821,-301.798 500.071,-276 493.882,-252.347 479.843,-228.342 468.213,-211.232"/>
<polygon fill="black" stroke="black" points="471.013,-209.129 462.405,-202.952 465.282,-213.148 471.013,-209.129"/>
</g>
<!-- u8&#45;&gt;u9 -->
<g id="edge31" class="edge"><title>u8&#45;&gt;u9</title>
<path fill="none" stroke="black" d="M424.605,-380.97C385.957,-368.784 312.209,-345.53 266.864,-331.232"/>
<polygon fill="black" stroke="black" points="267.68,-327.819 257.09,-328.15 265.575,-334.495 267.68,-327.819"/>
</g>
<!-- u7 -->
<g id="node16" class="node"><title>u7</title>
<ellipse fill="none" stroke="black" cx="450.071" cy="-318" rx="41.1308" ry="18"/>
<text text-anchor="middle" x="450.071" y="-312.4" font-family="Times,serif" font-size="14.00">Comms</text>
</g>
<!-- u8&#45;&gt;u7 -->
<g id="edge29" class="edge"><title>u8&#45;&gt;u7</title>
<path fill="none" stroke="black" d="M450.071,-371.697C450.071,-363.983 450.071,-354.712 450.071,-346.112"/>
<polygon fill="black" stroke="black" points="453.571,-346.104 450.071,-336.104 446.571,-346.104 453.571,-346.104"/>
</g>
<!-- u7&#45;&gt;u4 -->
<g id="edge25" class="edge"><title>u7&#45;&gt;u4</title>
<path fill="none" stroke="black" d="M450.071,-299.737C450.071,-277.981 450.071,-240.322 450.071,-214.564"/>
<polygon fill="black" stroke="black" points="453.571,-214.334 450.071,-204.334 446.571,-214.334 453.571,-214.334"/>
</g>
<!-- u6&#45;&gt;u8 -->
<g id="edge23" class="edge"><title>u6&#45;&gt;u8</title>
<path fill="none" stroke="black" d="M229.287,-450.671C279.076,-437.215 365.493,-413.859 414.133,-400.713"/>
<polygon fill="black" stroke="black" points="415.172,-404.058 423.913,-398.07 413.346,-397.3 415.172,-404.058"/>
</g>
</g>
</svg>
