<?xml version="1.0" encoding="UTF-8" standalone="no"?>
<!DOCTYPE svg PUBLIC "-//W3C//DTD SVG 1.1//EN"
 "http://www.w3.org/Graphics/SVG/1.1/DTD/svg11.dtd">
<!-- Generated by graphviz version 2.28.0 (20120619.1416)
 -->
<!-- Title: G Pages: 1 -->
<svg width="430pt" height="288pt"
 viewBox="0.00 0.00 430.37 288.00" xmlns="http://www.w3.org/2000/svg" xmlns:xlink="http://www.w3.org/1999/xlink">
<g id="graph1" class="graph" transform="scale(0.407163 0.407163) rotate(0) translate(4 703.333)">
<title>G</title>
<polygon fill="white" stroke="white" points="-4,5 -4,-703.333 1054,-703.333 1054,5 -4,5"/>
<!-- u6 -->
<g id="node1" class="node"><title>u6</title>
<ellipse fill="#ccffcc" stroke="black" cx="296" cy="-679" rx="31.1319" ry="18"/>
<text text-anchor="middle" x="296" y="-673.4" font-family="Times,serif" font-size="14.00">Main</text>
</g>
<!-- u12 -->
<g id="node8" class="node"><title>u12</title>
<ellipse fill="#99cc99" stroke="black" cx="296" cy="-596" rx="85.3387" ry="18"/>
<text text-anchor="middle" x="296" y="-590.4" font-family="Times,serif" font-size="14.00">Web.DDP.Deadpan</text>
</g>
<!-- u6&#45;&gt;u12 -->
<g id="edge18" class="edge"><title>u6&#45;&gt;u12</title>
<path fill="none" stroke="black" d="M296,-660.822C296,-650.19 296,-636.306 296,-624.204"/>
<polygon fill="black" stroke="black" points="299.5,-624.153 296,-614.153 292.5,-624.153 299.5,-624.153"/>
</g>
<!-- u5 -->
<g id="node2" class="node"><title>u5</title>
<ellipse fill="#99ff99" stroke="black" cx="513" cy="-267" rx="54.131" ry="18"/>
<text text-anchor="middle" x="513" y="-261.4" font-family="Times,serif" font-size="14.00">Data.EJson</text>
</g>
<!-- u2 -->
<g id="node5" class="node"><title>u2</title>
<ellipse fill="#66ff66" stroke="black" cx="562" cy="-103" rx="107.081" ry="18"/>
<text text-anchor="middle" x="562" y="-97.4" font-family="Times,serif" font-size="14.00">Data.EJson.EJson2Value</text>
</g>
<!-- u5&#45;&gt;u2 -->
<g id="edge16" class="edge"><title>u5&#45;&gt;u2</title>
<path fill="none" stroke="black" d="M514.943,-248.851C517.516,-228.842 522.834,-194.937 532,-167 536.089,-154.536 542.086,-141.345 547.646,-130.272"/>
<polygon fill="black" stroke="black" points="550.875,-131.647 552.36,-121.157 544.657,-128.432 550.875,-131.647"/>
</g>
<!-- u1 -->
<g id="node6" class="node"><title>u1</title>
<ellipse fill="#66ff66" stroke="black" cx="562" cy="-21" rx="80.3578" ry="18"/>
<text text-anchor="middle" x="562" y="-15.4" font-family="Times,serif" font-size="14.00">Data.EJson.EJson</text>
</g>
<!-- u5&#45;&gt;u1 -->
<g id="edge14" class="edge"><title>u5&#45;&gt;u1</title>
<path fill="none" stroke="black" d="M497.711,-249.632C468.955,-216.78 412.596,-141.155 446,-85 458.763,-63.5437 481.67,-48.9402 503.775,-39.2425"/>
<polygon fill="black" stroke="black" points="505.25,-42.4205 513.168,-35.381 502.589,-35.9463 505.25,-42.4205"/>
</g>
<!-- u0 -->
<g id="node7" class="node"><title>u0</title>
<ellipse fill="#66ff66" stroke="black" cx="623" cy="-185" rx="81.2634" ry="18"/>
<text text-anchor="middle" x="623" y="-179.4" font-family="Times,serif" font-size="14.00">Data.EJson.Aeson</text>
</g>
<!-- u5&#45;&gt;u0 -->
<g id="edge12" class="edge"><title>u5&#45;&gt;u0</title>
<path fill="none" stroke="black" d="M534.47,-250.385C550.953,-238.398 573.933,-221.685 592.349,-208.292"/>
<polygon fill="black" stroke="black" points="594.421,-211.113 600.449,-202.4 590.303,-205.452 594.421,-211.113"/>
</g>
<!-- u4 -->
<g id="node3" class="node"><title>u4</title>
<ellipse fill="#66ff66" stroke="black" cx="758" cy="-350" rx="114.356" ry="18"/>
<text text-anchor="middle" x="758" y="-344.4" font-family="Times,serif" font-size="14.00">Data.EJson.PropsBijection</text>
</g>
<!-- u4&#45;&gt;u5 -->
<g id="edge10" class="edge"><title>u4&#45;&gt;u5</title>
<path fill="none" stroke="black" d="M711.051,-333.478C667.611,-319.116 603.374,-297.879 559.937,-283.518"/>
<polygon fill="black" stroke="black" points="560.778,-280.11 550.185,-280.294 558.581,-286.756 560.778,-280.11"/>
</g>
<!-- u3 -->
<g id="node4" class="node"><title>u3</title>
<ellipse fill="#66ff66" stroke="black" cx="970" cy="-350" rx="79.2521" ry="18"/>
<text text-anchor="middle" x="970" y="-344.4" font-family="Times,serif" font-size="14.00">Data.EJson.Props</text>
</g>
<!-- u3&#45;&gt;u5 -->
<g id="edge8" class="edge"><title>u3&#45;&gt;u5</title>
<path fill="none" stroke="black" d="M911.62,-337.706C901.419,-335.773 890.904,-333.807 881,-332 771.4,-312.004 643.168,-290.022 570.672,-277.726"/>
<polygon fill="black" stroke="black" points="570.834,-274.204 560.389,-275.984 569.664,-281.105 570.834,-274.204"/>
</g>
<!-- u2&#45;&gt;u1 -->
<g id="edge6" class="edge"><title>u2&#45;&gt;u1</title>
<path fill="none" stroke="black" d="M562,-84.6412C562,-74.2971 562,-60.941 562,-49.2206"/>
<polygon fill="black" stroke="black" points="565.5,-49.0501 562,-39.0501 558.5,-49.0501 565.5,-49.0501"/>
</g>
<!-- u0&#45;&gt;u2 -->
<g id="edge4" class="edge"><title>u0&#45;&gt;u2</title>
<path fill="none" stroke="black" d="M610.063,-167.034C601.653,-156.003 590.538,-141.427 581.116,-129.071"/>
<polygon fill="black" stroke="black" points="583.765,-126.771 574.918,-120.941 578.198,-131.016 583.765,-126.771"/>
</g>
<!-- u0&#45;&gt;u1 -->
<g id="edge2" class="edge"><title>u0&#45;&gt;u1</title>
<path fill="none" stroke="black" d="M643.625,-167.365C665.577,-147.555 694.988,-113.558 678,-85 665.237,-63.5437 642.33,-48.9402 620.225,-39.2425"/>
<polygon fill="black" stroke="black" points="621.411,-35.9463 610.832,-35.381 618.75,-42.4205 621.411,-35.9463"/>
</g>
<!-- u11 -->
<g id="node9" class="node"><title>u11</title>
<ellipse fill="#66cc66" stroke="black" cx="134" cy="-514" rx="134.293" ry="18"/>
<text text-anchor="middle" x="134" y="-508.4" font-family="Times,serif" font-size="14.00">Web.DDP.Deadpan.Websockets</text>
</g>
<!-- u12&#45;&gt;u11 -->
<g id="edge36" class="edge"><title>u12&#45;&gt;u11</title>
<path fill="none" stroke="black" d="M263.994,-579.195C238.892,-566.798 203.734,-549.437 176.31,-535.894"/>
<polygon fill="black" stroke="black" points="177.848,-532.75 167.332,-531.46 174.748,-539.026 177.848,-532.75"/>
</g>
<!-- u9 -->
<g id="node11" class="node"><title>u9</title>
<ellipse fill="#66cc66" stroke="black" cx="373" cy="-432" rx="106.324" ry="18"/>
<text text-anchor="middle" x="373" y="-426.4" font-family="Times,serif" font-size="14.00">Web.DDP.Deadpan.DSL</text>
</g>
<!-- u12&#45;&gt;u9 -->
<g id="edge34" class="edge"><title>u12&#45;&gt;u9</title>
<path fill="none" stroke="black" d="M296.458,-577.984C297.624,-557.507 301.609,-522.568 315,-496 322.34,-481.438 334.037,-467.789 345.011,-456.944"/>
<polygon fill="black" stroke="black" points="347.584,-459.328 352.431,-449.907 342.767,-454.249 347.584,-459.328"/>
</g>
<!-- u7 -->
<g id="node13" class="node"><title>u7</title>
<ellipse fill="#66cc66" stroke="black" cx="450" cy="-514" rx="126.081" ry="18"/>
<text text-anchor="middle" x="450" y="-508.4" font-family="Times,serif" font-size="14.00">Web.DDP.Deadpan.Callbacks</text>
</g>
<!-- u12&#45;&gt;u7 -->
<g id="edge32" class="edge"><title>u12&#45;&gt;u7</title>
<path fill="none" stroke="black" d="M326.794,-579.003C350.403,-566.739 383.208,-549.697 409.032,-536.282"/>
<polygon fill="black" stroke="black" points="410.94,-539.235 418.201,-531.519 407.713,-533.023 410.94,-539.235"/>
</g>
<!-- u10 -->
<g id="node10" class="node"><title>u10</title>
<ellipse fill="#66cc66" stroke="black" cx="513" cy="-350" rx="112.166" ry="18"/>
<text text-anchor="middle" x="513" y="-344.4" font-family="Times,serif" font-size="14.00">Web.DDP.Deadpan.GUID</text>
</g>
<!-- u10&#45;&gt;u5 -->
<g id="edge30" class="edge"><title>u10&#45;&gt;u5</title>
<path fill="none" stroke="black" d="M513,-331.822C513,-321.19 513,-307.306 513,-295.204"/>
<polygon fill="black" stroke="black" points="516.5,-295.153 513,-285.153 509.5,-295.153 516.5,-295.153"/>
</g>
<!-- u9&#45;&gt;u5 -->
<g id="edge24" class="edge"><title>u9&#45;&gt;u5</title>
<path fill="none" stroke="black" d="M372.012,-413.835C371.674,-392.571 374.097,-356.199 392,-332 409.42,-308.453 438.115,-292.744 463.189,-282.785"/>
<polygon fill="black" stroke="black" points="464.465,-286.044 472.59,-279.245 461.998,-279.493 464.465,-286.044"/>
</g>
<!-- u9&#45;&gt;u10 -->
<g id="edge28" class="edge"><title>u9&#45;&gt;u10</title>
<path fill="none" stroke="black" d="M401.669,-414.618C422.856,-402.511 451.913,-385.907 475.029,-372.698"/>
<polygon fill="black" stroke="black" points="476.942,-375.636 483.888,-367.635 473.469,-369.558 476.942,-375.636"/>
</g>
<!-- u8 -->
<g id="node12" class="node"><title>u8</title>
<ellipse fill="#66cc66" stroke="black" cx="227" cy="-350" rx="118.036" ry="18"/>
<text text-anchor="middle" x="227" y="-344.4" font-family="Times,serif" font-size="14.00">Web.DDP.Deadpan.Comms</text>
</g>
<!-- u9&#45;&gt;u8 -->
<g id="edge26" class="edge"><title>u9&#45;&gt;u8</title>
<path fill="none" stroke="black" d="M343.102,-414.618C320.836,-402.417 290.234,-385.649 266.037,-372.39"/>
<polygon fill="black" stroke="black" points="267.56,-369.234 257.108,-367.498 264.196,-375.372 267.56,-369.234"/>
</g>
<!-- u8&#45;&gt;u5 -->
<g id="edge22" class="edge"><title>u8&#45;&gt;u5</title>
<path fill="none" stroke="black" d="M280.459,-333.86C332.903,-319.006 412.233,-296.539 463.332,-282.067"/>
<polygon fill="black" stroke="black" points="464.491,-285.376 473.159,-279.284 462.584,-278.641 464.491,-285.376"/>
</g>
<!-- u7&#45;&gt;u9 -->
<g id="edge20" class="edge"><title>u7&#45;&gt;u9</title>
<path fill="none" stroke="black" d="M433.67,-496.034C422.849,-484.791 408.483,-469.866 396.447,-457.36"/>
<polygon fill="black" stroke="black" points="398.763,-454.719 389.306,-449.941 393.719,-459.574 398.763,-454.719"/>
</g>
</g>
</svg>
